<?xml version="1.0" standalone="no"?>
<!DOCTYPE svg PUBLIC "-//W3C//DTD SVG 20010904//EN"
 "http://www.w3.org/TR/2001/REC-SVG-20010904/DTD/svg10.dtd">
<svg version="1.0" xmlns="http://www.w3.org/2000/svg"
 width="500.000000pt" height="500.000000pt" viewBox="0 0 500.000000 500.000000"
 preserveAspectRatio="xMidYMid meet">

<g transform="translate(0.000000,500.000000) scale(0.100000,-0.100000)"
fill="#000000" stroke="none">
<path d="M1210 2750 l0 -800 63 0 62 0 -47 693 c-26 380 -47 709 -47 730 -1
42 22 60 42 33 7 -9 138 -253 292 -541 154 -289 283 -525 286 -525 3 0 118
239 254 530 136 292 254 535 261 541 7 6 18 8 24 4 7 -4 10 -240 10 -736 l0
-729 65 0 65 0 0 800 0 801 -71 -3 -72 -3 -236 -505 c-217 -463 -239 -505
-261 -505 -22 0 -52 51 -295 507 l-270 508 -62 0 -63 0 0 -800z"/>
<path d="M3576 3057 c-126 -271 -237 -501 -248 -512 -13 -15 -22 -17 -34 -10
-9 6 -125 214 -257 462 l-242 452 -3 -111 -3 -110 237 -444 c130 -244 239
-444 243 -444 3 0 80 159 170 353 287 615 343 728 360 725 14 -3 16 -79 19
-736 l2 -732 65 0 65 0 0 800 0 800 -72 0 -73 -1 -229 -492z"/>
</g>
</svg>
